<?xml version="1.0" standalone="no"?>
<!DOCTYPE svg PUBLIC "-//W3C//DTD SVG 20010904//EN"
 "http://www.w3.org/TR/2001/REC-SVG-20010904/DTD/svg10.dtd">
<svg version="1.0" xmlns="http://www.w3.org/2000/svg"
 width="660.000000pt" height="1070.000000pt" viewBox="0 0 660.000000 1070.000000"
 preserveAspectRatio="xMidYMid meet">
<metadata>
Created by potrace 1.16, written by Peter Selinger 2001-2019
</metadata>
<g transform="translate(0.000000,1070.000000) scale(0.100000,-0.100000)"
fill="#000000" stroke="none">
<path d="M0 5350 l0 -5350 3300 0 3300 0 0 5350 0 5350 -3300 0 -3300 0 0
-5350z m3455 699 c161 -30 304 -165 390 -369 15 -35 34 -69 43 -76 9 -7 11
-13 5 -17 -7 -5 -5 -34 8 -89 62 -282 44 -533 -56 -739 -14 -29 -25 -56 -25
-60 0 -4 20 -19 44 -33 60 -35 109 -95 157 -190 65 -130 88 -120 -253 -113
-161 4 -508 7 -770 7 l-478 0 26 58 c67 154 152 268 205 279 l28 5 -39 77
c-70 139 -85 206 -85 371 1 140 2 148 37 252 156 454 446 696 763 637z m-1675
-724 c429 -95 710 -462 591 -775 -40 -104 -143 -229 -252 -302 -32 -22 -49
-40 -49 -54 0 -35 55 -106 140 -178 45 -37 79 -70 76 -73 -2 -3 -42 5 -87 16
-101 26 -229 87 -288 137 l-43 38 -152 -3 c-84 -1 -181 3 -217 9 -288 51 -526
209 -628 416 -42 86 -54 152 -49 258 4 77 10 102 40 166 41 88 80 139 151 198
90 74 211 129 347 158 85 17 318 12 420 -11z m3266 -425 c334 -66 564 -341
508 -609 -33 -159 -170 -286 -370 -343 -63 -18 -104 -22 -204 -22 -135 0 -205
14 -345 71 -70 29 -71 29 -111 12 -57 -25 -198 -44 -267 -35 -31 4 -55 11 -52
16 3 4 38 21 77 37 80 31 156 93 141 115 -4 7 -28 45 -54 83 -49 75 -89 193
-89 261 0 174 140 334 353 404 130 42 237 45 413 10z m-2527 -1103 c21 -230
40 -420 43 -422 2 -2 340 -5 751 -7 l747 -3 5 30 c3 17 16 170 30 340 14 171
28 328 32 350 l6 40 14 -45 c7 -25 31 -132 53 -238 21 -107 40 -196 42 -198 5
-4 74 -11 188 -19 516 -35 1054 -121 1300 -207 110 -39 151 -60 189 -98 56
-57 37 -106 -64 -165 -234 -137 -1005 -254 -1850 -281 -99 -3 -191 -7 -205 -9
-14 -2 -176 -4 -360 -4 l-335 -2 30 -21 c68 -49 152 -145 186 -213 32 -67 34
-74 34 -180 0 -105 -2 -114 -34 -180 -53 -109 -152 -201 -283 -263 -162 -78
-204 -87 -408 -87 -184 0 -218 6 -350 57 -148 58 -282 172 -338 288 -101 205
-22 440 194 582 35 23 64 46 64 50 0 4 -26 8 -57 8 -107 0 -599 55 -818 91
-165 27 -395 85 -485 122 -119 48 -190 104 -190 149 0 28 58 85 113 112 233
109 731 199 1407 251 47 4 88 10 92 13 4 4 23 63 43 131 67 230 167 501 173
466 1 -11 20 -208 41 -438z m808 153 c18 -11 35 -31 39 -45 21 -86 -73 -142
-152 -90 -47 30 -37 115 16 142 35 18 60 16 97 -7z"/>
<path d="M4870 4675 c-29 -15 -37 -41 -32 -97 l4 -40 27 26 c24 23 31 25 61
16 19 -6 47 -10 62 -10 20 0 29 -7 36 -27 10 -26 10 -26 11 -5 1 13 11 37 24
54 21 29 21 31 3 42 -10 6 -30 21 -44 34 -29 26 -111 30 -152 7z"/>
<path d="M2551 2787 c-6 -6 -11 -16 -11 -22 0 -5 -9 -16 -20 -23 -13 -8 -20
-23 -20 -41 0 -17 -4 -33 -10 -36 -15 -9 -12 -41 5 -55 8 -7 13 -16 10 -20 -3
-4 4 -19 15 -33 14 -17 20 -40 20 -75 0 -56 7 -62 71 -62 29 0 46 6 62 24 12
13 31 25 42 27 24 5 45 44 45 85 0 17 7 37 15 44 8 7 15 21 15 31 0 10 5 21
10 24 17 10 0 76 -28 111 -25 32 -26 32 -118 31 -52 0 -98 -5 -103 -10z"/>
<path d="M2419 2434 c-83 -25 -141 -109 -173 -248 -21 -89 -21 -155 0 -163 9
-3 34 4 55 17 22 12 43 20 46 17 2 -3 -8 -12 -24 -21 -26 -14 1 -15 315 -16
l342 0 0 54 c0 30 -7 83 -16 118 -38 149 -97 228 -180 246 -47 10 -48 10 -85
-29 -24 -26 -43 -37 -53 -33 -12 5 -15 2 -10 -10 3 -9 9 -14 13 -12 3 2 11 -7
18 -20 17 -35 -1 -29 -28 10 -18 27 -32 35 -63 39 -29 4 -49 15 -68 36 -31 35
-27 34 -89 15z"/>
</g>
</svg>
