<?xml version="1.0" standalone="no"?>
<!DOCTYPE svg PUBLIC "-//W3C//DTD SVG 20010904//EN"
 "http://www.w3.org/TR/2001/REC-SVG-20010904/DTD/svg10.dtd">
<svg version="1.0" xmlns="http://www.w3.org/2000/svg"
 width="549.000000pt" height="416.000000pt" viewBox="0 0 549.000000 416.000000"
 preserveAspectRatio="xMidYMid meet">

<g transform="translate(0.000000,416.000000) scale(0.100000,-0.100000)"
fill="#000000" stroke="none">
<path d="M2140 4139 c0 -42 -11 -68 -26 -62 -8 3 -14 -1 -14 -11 0 -9 5 -16
10 -16 6 0 10 -23 10 -51 0 -41 -3 -50 -15 -45 -10 3 -17 -3 -21 -19 -3 -14
-11 -25 -16 -25 -6 0 -8 37 -4 97 4 74 2 93 -7 84 -8 -8 -13 -69 -15 -185 l-4
-173 23 2 c13 1 31 -2 39 -6 8 -4 41 -11 73 -14 31 -4 57 -11 57 -16 0 -5 -7
-26 -15 -46 -8 -20 -13 -38 -11 -40 2 -3 14 22 26 54 40 109 136 206 250 253
50 21 56 -3 14 -58 -18 -24 -31 -49 -28 -53 3 -5 0 -8 -7 -7 -26 6 -62 -110
-64 -207 l-3 -90 7 80 c8 84 24 150 42 175 9 12 9 11 3 -5 -4 -11 -7 -31 -8
-45 -1 -23 3 -25 42 -26 40 -1 42 0 42 27 0 42 18 35 23 -8 2 -21 3 40 3 134
-1 95 -4 173 -8 173 -5 0 -8 8 -8 18 -1 17 -22 52 -32 52 -3 0 -8 -9 -11 -20
-3 -11 -11 -20 -17 -20 -8 0 -10 9 -6 24 4 15 1 26 -7 29 -9 3 -12 16 -9 37 6
42 -13 32 -22 -11 -6 -31 -7 -32 -26 -14 -19 18 -20 17 -20 -4 0 -28 -20 -17
-21 12 -2 39 -18 -56 -18 -111 -1 -33 -5 -51 -11 -47 -5 3 -10 44 -10 91 0 47
-4 83 -9 80 -4 -3 -6 -18 -3 -32 3 -19 1 -25 -7 -20 -6 4 -11 14 -11 23 0 10
-6 13 -17 9 -9 -4 -20 -1 -25 6 -5 9 -8 5 -8 -12 0 -20 -2 -22 -10 -10 -11 17
-10 21 -15 -85 -4 -106 -4 -107 -21 -55 -16 53 -18 100 -4 100 6 0 10 11 10
25 0 31 -15 33 -25 3 -6 -19 -9 -14 -15 25 -10 54 -20 73 -20 36z"/>
<path d="M3036 3952 c-11 -12 -18 -13 -29 -4 -10 9 -18 8 -33 -2 -17 -12 -20
-28 -21 -142 -1 -71 2 -149 6 -174 l8 -45 3 40 c2 24 4 31 7 18 2 -12 11 -21
21 -21 39 1 267 -31 261 -37 -2 -2 -53 3 -114 11 -124 15 -141 16 -133 9 3 -3
57 -12 119 -20 63 -9 119 -17 126 -20 6 -2 14 6 16 18 2 12 5 -14 6 -58 2 -63
5 -74 11 -51 5 16 7 33 3 38 -3 5 -2 39 2 74 l7 64 29 -27 c38 -35 65 -86 84
-160 12 -46 13 -73 5 -142 -6 -46 -17 -99 -25 -117 l-14 -34 35 0 c66 0 123
-21 154 -57 17 -18 30 -30 30 -25 0 16 -65 69 -99 81 -19 6 -50 11 -69 11 -28
0 -33 3 -27 17 3 10 11 40 17 68 8 39 12 46 18 30 7 -18 25 -22 161 -37 85 -9
162 -16 172 -16 16 1 21 13 20 46 -1 6 3 12 8 12 4 0 10 -21 12 -47 2 -27 2
33 -1 132 -3 99 -9 185 -14 191 -5 7 -8 16 -7 20 3 13 -12 44 -21 44 -5 0 -12
-9 -15 -20 -9 -29 -28 -25 -21 4 4 17 1 26 -10 30 -12 5 -14 15 -9 45 4 25 2
41 -5 46 -7 5 -11 0 -9 -11 1 -11 -1 -34 -5 -52 -8 -32 -9 -33 -27 -16 -18 16
-19 16 -19 -5 0 -28 -20 -17 -21 12 -2 40 -18 -57 -18 -112 -1 -44 -3 -52 -13
-42 -8 7 -13 41 -13 91 1 43 -2 77 -6 75 -3 -3 -4 -17 -1 -31 3 -19 1 -25 -7
-20 -6 4 -11 14 -11 23 0 10 -6 13 -17 9 -9 -4 -20 -1 -25 6 -5 9 -8 5 -8 -12
0 -18 -3 -21 -9 -11 -12 19 -24 -3 -16 -29 4 -11 3 -50 -1 -87 -5 -50 -9 -62
-16 -49 -6 10 -8 31 -6 47 3 16 0 29 -5 29 -5 0 -6 16 -2 38 10 51 7 157 -7
209 -16 67 -69 98 -183 107 -49 4 -97 12 -107 17 -11 6 -39 16 -63 23 -37 12
-45 11 -59 -2z m-63 -252 c3 -11 1 -20 -4 -20 -5 0 -9 9 -9 20 0 11 2 20 4 20
2 0 6 -9 9 -20z"/>
<path d="M2090 3708 c0 -4 13 -8 29 -8 16 0 44 -3 62 -6 19 -4 31 -4 27 0 -9
11 -118 24 -118 14z"/>
<path d="M2420 3667 c0 -9 13 -11 41 -9 47 5 47 7 -3 15 -26 4 -38 2 -38 -6z"/>
<path d="M2171 3524 c0 -11 3 -14 6 -6 3 7 2 16 -1 19 -3 4 -6 -2 -5 -13z"/>
<path d="M4306 3512 c-12 -13 -18 -13 -31 -2 -13 11 -18 10 -34 -4 -16 -15
-19 -35 -20 -159 -2 -128 0 -145 17 -165 23 -26 34 -29 25 -5 -5 13 -3 15 13
9 18 -7 292 -42 379 -48 26 -2 40 1 41 10 3 26 6 26 14 2 6 -19 9 -10 11 40 5
96 -1 182 -14 207 -25 46 -78 69 -173 77 -49 4 -93 11 -99 15 -5 5 -33 15 -62
23 -46 14 -53 14 -67 0z"/>
<path d="M2162 3470 c0 -14 2 -19 5 -12 2 6 2 18 0 25 -3 6 -5 1 -5 -13z"/>
<path d="M3256 3393 c-6 -14 -5 -15 5 -6 7 7 10 15 7 18 -3 3 -9 -2 -12 -12z"/>
<path d="M3226 3333 c-6 -14 -5 -15 5 -6 7 7 10 15 7 18 -3 3 -9 -2 -12 -12z"/>
<path d="M2530 3286 c0 -2 8 -10 18 -17 15 -13 16 -12 3 4 -13 16 -21 21 -21
13z"/>
<path d="M3570 3239 c74 -9 151 -17 170 -17 19 0 -28 9 -105 19 -77 10 -153
18 -170 17 -16 0 31 -9 105 -19z"/>
<path d="M2605 3225 c22 -14 45 -25 50 -25 6 0 -8 11 -30 25 -22 13 -44 24
-50 24 -5 0 8 -11 30 -24z"/>
<path d="M2698 3183 c7 -3 16 -2 19 1 4 3 -2 6 -13 5 -11 0 -14 -3 -6 -6z"/>
<path d="M4311 3156 c2 -2 74 -11 159 -20 85 -9 166 -19 180 -21 22 -4 22 -3
5 5 -28 12 -356 47 -344 36z"/>
<path d="M3603 3030 c0 -25 2 -35 4 -22 2 12 2 32 0 45 -2 12 -4 2 -4 -23z"/>
<path d="M2857 1784 c-11 -11 -8 -54 3 -54 6 0 -11 -32 -36 -70 -43 -63 -52
-72 -97 -85 -68 -20 -76 -19 -87 10 -13 35 -37 41 -74 19 -17 -10 -32 -17 -33
-16 -2 1 -10 2 -19 2 -10 0 -14 -7 -12 -22 2 -19 9 -23 38 -23 43 0 60 -10 60
-37 0 -31 30 -87 54 -100 11 -7 37 -14 56 -18 33 -5 35 -7 43 -60 11 -71 0
-154 -21 -173 -22 -19 -78 -25 -308 -33 -178 -5 -193 -4 -205 13 -8 10 -31 26
-52 35 -34 16 -41 17 -73 3 -33 -13 -39 -13 -74 5 -31 16 -45 18 -65 10 -18
-7 -33 -7 -46 1 -11 5 -28 7 -38 4 -10 -3 -29 -1 -43 4 -17 6 -38 4 -72 -8
l-49 -17 -28 28 c-37 38 -83 37 -129 -1 -19 -15 -52 -34 -73 -41 -22 -7 -51
-18 -65 -26 -35 -18 -52 -18 -79 1 -26 18 -113 36 -113 24 0 -5 -6 -6 -12 -4
-7 3 -29 -5 -48 -17 -63 -40 -79 -46 -100 -41 -11 3 -31 -2 -45 -11 -13 -9
-35 -16 -47 -16 -13 0 -44 -11 -70 -25 -26 -14 -52 -25 -57 -25 -13 0 -83 -48
-93 -63 -4 -6 -2 -15 5 -20 7 -5 4 -6 -9 -2 -14 4 -24 0 -27 -9 -5 -13 4 -14
58 -9 46 4 65 2 65 -6 0 -6 -17 -11 -41 -11 -33 0 -39 -3 -30 -13 17 -22 -32
-58 -87 -63 -70 -7 -65 -16 8 -14 82 3 88 2 70 -10 -8 -5 -23 -7 -32 -4 -13 4
-16 1 -12 -9 4 -11 -10 -17 -63 -24 -67 -10 -67 -10 -19 -12 61 -1 52 -12 -22
-28 -47 -9 -50 -11 -18 -10 31 1 40 -2 42 -17 4 -26 7 -27 58 -29 71 -3 55
-17 -21 -19 l-68 -2 60 -3 c33 -2 71 -6 85 -9 24 -5 24 -6 6 -20 -19 -13 -18
-14 15 -14 51 0 109 -11 109 -21 0 -5 -21 -9 -47 -9 -25 0 -43 -3 -40 -7 9 -8
57 -17 322 -57 50 -7 84 -14 77 -15 -32 -3 3 -19 54 -26 54 -6 55 -7 38 -26
-9 -10 -23 -19 -30 -19 -7 0 -15 -4 -19 -10 -3 -5 14 -7 46 -3 38 5 50 3 45
-5 -4 -7 -18 -12 -31 -12 -18 0 -23 -4 -19 -15 4 -10 0 -15 -11 -15 -9 0 -13
-4 -10 -10 3 -5 0 -10 -7 -11 -7 -1 -2 -4 12 -8 l25 -7 -34 -17 c-19 -9 -50
-18 -70 -19 l-36 -1 33 -4 c40 -5 32 -23 -11 -24 -28 -1 -29 -2 -9 -7 13 -4
23 -10 23 -14 -2 -27 1 -30 34 -26 19 2 35 1 35 -3 0 -5 -24 -10 -53 -12 l-52
-3 63 -2 c57 -2 80 -13 50 -25 -7 -3 5 -6 27 -7 22 -1 49 -5 60 -10 16 -7 12
-9 -19 -9 -22 -1 -37 -4 -33 -7 8 -8 92 -26 132 -29 17 -1 41 -5 55 -8 14 -3
46 -9 73 -12 26 -3 45 -10 42 -15 -12 -20 208 -35 500 -34 246 1 349 6 575 28
151 15 313 29 360 32 47 3 94 9 105 14 11 4 92 13 180 20 530 38 981 84 1021
105 16 8 37 15 47 15 19 0 23 15 7 25 -20 12 1 25 41 25 36 0 38 1 27 20 -15
24 -5 35 40 43 37 7 44 -8 10 -24 -22 -9 -22 -9 2 -4 14 2 29 5 33 5 5 0 5 9
2 20 -4 14 -2 20 9 20 8 0 22 3 32 7 12 4 15 3 10 -5 -4 -7 -2 -12 3 -12 6 0
11 6 11 14 0 19 22 26 93 27 l62 2 -45 8 c-25 4 -66 8 -91 8 -33 1 -49 6 -53
17 -3 9 -12 14 -19 11 -7 -2 -30 -1 -52 3 -22 4 -30 8 -18 9 16 1 21 6 17 16
-4 8 -12 15 -20 15 -8 0 -14 2 -14 5 0 10 39 43 57 48 10 3 0 6 -22 7 -22 1
-53 6 -70 10 -29 7 -28 9 15 23 8 3 -31 6 -87 6 -56 1 -105 5 -108 11 -4 6 13
10 42 11 36 0 43 3 28 9 -17 7 -16 9 10 10 89 3 366 38 377 47 7 6 32 16 54
22 44 12 68 41 34 41 -33 0 -32 19 2 24 82 13 131 24 110 25 -35 2 -53 23 -37
44 8 12 27 17 60 17 41 0 46 -2 35 -15 -7 -8 -22 -16 -34 -16 -14 -1 -16 -3
-5 -6 29 -7 68 14 64 36 -4 23 -2 25 38 35 23 5 27 3 28 -16 1 -22 1 -21 10 3
11 31 32 38 109 40 30 0 64 4 75 9 13 6 3 7 -27 3 -32 -4 -48 -2 -48 5 0 7
-29 12 -72 14 -52 2 -72 7 -70 16 2 12 -23 15 -105 15 -18 -1 -33 3 -33 8 0 9
14 13 37 10 6 -1 14 3 18 9 3 5 -1 10 -10 10 -9 0 -13 5 -10 10 3 6 -3 10 -14
10 -12 0 -21 4 -21 9 0 14 26 32 35 23 5 -4 5 1 2 11 -5 14 0 17 31 18 33 1
30 2 -23 14 -33 8 -75 14 -92 14 -40 1 -44 21 -5 21 16 0 32 3 36 8 4 4 -54
12 -131 18 -129 10 -133 11 -58 13 66 2 75 4 50 12 -16 5 -73 12 -125 16 -90
6 -98 8 -148 45 -50 37 -54 38 -95 28 -23 -7 -52 -18 -64 -25 -20 -14 -22 -12
-33 35 -13 54 -56 101 -118 127 -45 19 -61 12 -121 -52 -52 -55 -81 -107 -81
-145 0 -17 -6 -20 -45 -20 l-45 0 0 50 c0 42 4 52 25 66 30 19 48 74 43 129
-2 27 -8 40 -18 40 -11 0 -16 -17 -20 -70 -6 -71 -15 -99 -29 -91 -4 3 -8 67
-9 142 -1 135 -9 171 -33 147 -11 -11 -13 -232 -3 -318 5 -40 4 -48 -6 -38 -7
7 -15 45 -18 87 -4 65 -7 76 -23 76 -40 0 -23 -136 22 -175 51 -43 40 -55 -51
-55 -44 0 -80 3 -80 7 0 4 10 17 21 29 30 32 34 136 5 142 -17 4 -18 0 -13
-40 3 -25 3 -58 -2 -74 -5 -20 -10 14 -14 111 -4 76 -11 143 -16 148 -21 21
-26 -7 -21 -112 3 -70 1 -110 -5 -108 -12 4 -23 42 -24 85 -1 21 -6 32 -16 32
-36 0 -7 -122 32 -134 13 -4 19 -18 21 -45 l2 -39 -82 -6 c-46 -3 -160 -8
-254 -12 l-172 -6 5 45 c4 33 0 57 -15 89 -11 24 -23 72 -27 107 -6 53 -13 70
-36 94 -16 16 -29 33 -29 38 0 5 -5 9 -11 9 -6 0 -20 11 -30 24 -11 14 -28 28
-38 31 -13 4 -22 19 -26 48 -4 23 -11 47 -15 52 -5 6 -10 23 -12 40 -3 28 -25
44 -41 29z m-9 -163 c1 -31 -20 -57 -38 -46 -16 10 -12 27 12 52 12 13 22 23
23 23 1 0 2 -13 3 -29z m-68 -58 c0 -23 -59 -83 -81 -83 -18 0 -49 35 -49 56
0 7 19 15 43 19 23 4 49 11 57 16 23 13 30 11 30 -8z m229 -217 c24 -38 28
-114 9 -149 -18 -35 -40 -46 -89 -47 l-45 0 -11 83 c-6 45 -15 92 -18 105 -7
21 -4 22 41 23 27 0 58 4 69 9 11 5 21 9 22 9 1 1 11 -14 22 -33z m-183 -63
c39 -95 30 -143 -28 -143 -33 0 -32 -4 -14 84 8 38 12 83 9 100 -8 44 6 26 33
-41z m275 -10 c10 -25 19 -54 19 -66 0 -24 -38 -47 -77 -47 l-23 0 26 51 c20
40 24 60 19 86 -9 48 11 34 36 -24z m1782 -180 c-7 -2 -21 -2 -30 0 -10 3 -4
5 12 5 17 0 24 -2 18 -5z m-47 -258 c-26 -19 -42 -19 -26 0 7 8 20 15 29 15
13 -1 13 -3 -3 -15z m-376 -289 c0 -11 -19 -15 -25 -6 -3 5 1 10 9 10 9 0 16
-2 16 -4z m-30 -200 c0 -2 -7 -6 -15 -10 -8 -3 -15 -1 -15 4 0 6 7 10 15 10 8
0 15 -2 15 -4z"/>
<path d="M5298 933 c7 -3 16 -2 19 1 4 3 -2 6 -13 5 -11 0 -14 -3 -6 -6z"/>
<path d="M463 833 c9 -2 23 -2 30 0 6 3 -1 5 -18 5 -16 0 -22 -2 -12 -5z"/>
<path d="M1038 343 c6 -2 18 -2 25 0 6 3 1 5 -13 5 -14 0 -19 -2 -12 -5z"/>
<path d="M1208 333 c7 -3 16 -2 19 1 4 3 -2 6 -13 5 -11 0 -14 -3 -6 -6z"/>
</g>
</svg>
