<?xml version="1.0" standalone="no"?>
<!DOCTYPE svg PUBLIC "-//W3C//DTD SVG 20010904//EN"
 "http://www.w3.org/TR/2001/REC-SVG-20010904/DTD/svg10.dtd">
<svg version="1.0" xmlns="http://www.w3.org/2000/svg"
 width="833.000000pt" height="416.000000pt" viewBox="0 0 833.000000 416.000000"
 preserveAspectRatio="xMidYMid meet">

<g transform="translate(0.000000,416.000000) scale(0.100000,-0.100000)"
fill="#000000" stroke="none">
<path d="M2070 3010 c0 -7 34 -45 75 -85 70 -66 89 -95 65 -95 -5 0 -20 -10
-32 -22 l-22 -22 65 -12 c53 -11 70 -20 101 -52 20 -22 51 -49 70 -60 19 -12
43 -30 53 -42 20 -22 40 -27 30 -7 -4 6 2 2 13 -10 11 -13 23 -23 26 -23 7 0
-33 69 -55 95 -9 11 -20 30 -24 43 l-7 23 54 -28 c29 -15 56 -29 59 -31 15 -7
3 31 -15 52 -12 13 -29 36 -38 52 -14 25 -24 29 -65 32 -41 3 -55 10 -93 46
-25 23 -63 50 -84 60 -21 9 -48 28 -58 41 -10 13 -33 28 -51 34 -18 5 -40 12
-49 16 -12 5 -18 3 -18 -5z"/>
<path d="M3877 2619 c-49 -50 -84 -82 -77 -70 6 12 10 27 8 33 -3 7 -15 -14
-27 -46 -23 -56 -41 -75 -21 -21 6 15 8 30 6 33 -5 4 -49 -77 -82 -153 l-18
-39 -12 71 c-12 73 -56 184 -81 204 -11 10 -12 7 -3 -17 10 -27 8 -27 -25 11
-35 39 -36 39 -20 8 24 -52 18 -50 -42 7 -53 51 -57 47 -8 -8 15 -18 6 -15
-34 12 -29 20 -58 36 -65 36 -6 0 4 -10 22 -21 41 -26 42 -35 1 -14 -16 9 -53
18 -82 21 l-52 4 48 -15 c45 -15 69 -39 27 -28 -24 6 -116 -14 -150 -34 l-25
-14 25 7 c14 4 32 9 40 11 8 3 1 -4 -16 -15 -17 -11 -45 -37 -63 -58 -17 -22
-29 -30 -25 -19 11 29 -39 -31 -64 -78 -15 -28 -21 -34 -24 -21 -2 11 -16 -10
-36 -54 -31 -67 -52 -90 -52 -58 0 14 -121 146 -134 146 -4 0 -4 -5 0 -11 4
-8 1 -8 -12 -1 -11 5 -34 12 -53 16 -29 5 -32 4 -21 -9 11 -13 7 -13 -36 0
-53 16 -73 13 -25 -3 65 -23 206 -126 195 -143 -2 -5 5 -13 16 -19 11 -6 20
-19 20 -30 0 -19 -1 -19 -57 1 -67 23 -73 23 -48 5 16 -11 5 -13 -76 -10 -88
2 -92 2 -59 -11 33 -13 31 -13 -45 -9 l-80 4 47 -15 c63 -21 69 -35 16 -36
l-43 -2 35 -7 35 -7 -33 -8 c-29 -7 -59 -39 -54 -57 1 -4 -9 -15 -23 -24 -43
-28 -27 -35 20 -8 44 24 57 22 33 -6 -7 -8 -3 -6 10 4 12 11 22 14 22 8 0 -6
-4 -14 -10 -17 -5 -3 -10 -11 -10 -18 0 -6 7 -2 15 9 8 10 15 15 15 10 0 -5
11 1 25 14 14 13 25 19 25 13 0 -5 7 -10 15 -10 8 0 15 4 15 9 0 4 5 8 10 8 6
0 4 -14 -5 -32 l-16 -33 20 25 c11 14 21 21 21 16 0 -5 8 -2 18 6 9 8 24 19
32 23 13 8 13 7 1 -8 -17 -22 -2 -22 28 -1 16 11 26 13 33 6 6 -6 16 -8 23 -6
15 6 12 -25 -8 -83 -9 -23 -19 -62 -22 -86 -6 -40 -5 -45 11 -43 12 2 25 23
40 67 12 35 23 61 23 57 1 -4 16 6 33 23 18 16 34 25 36 19 3 -7 8 -7 18 1 12
10 14 -11 14 -141 0 -176 15 -355 39 -475 l17 -83 -26 -6 c-14 -3 -142 -10
-285 -16 -364 -15 -480 -42 -512 -117 -7 -19 -11 -43 -8 -54 4 -11 -1 -92 -10
-180 -11 -98 -16 -205 -13 -275 4 -107 3 -114 -15 -114 -13 0 -17 -5 -14 -14
4 -10 -2 -16 -16 -19 -13 -3 -7 -5 15 -6 57 -2 54 -19 -4 -26 -50 -5 -333 -25
-370 -25 -10 0 -18 -6 -18 -14 0 -17 -76 -32 -114 -22 -14 3 -28 2 -31 -4 -3
-5 -1 -10 5 -10 6 0 19 -7 28 -16 14 -15 14 -17 -1 -26 -9 -5 -17 -15 -17 -22
0 -9 -21 -19 -52 -26 -104 -23 -132 -42 -83 -54 14 -4 25 -11 25 -16 0 -6 6
-10 14 -10 8 0 18 -9 21 -20 5 -17 15 -20 63 -19 54 1 55 1 29 13 -15 7 -24
15 -21 19 11 11 52 8 59 -4 4 -6 19 -7 36 -4 18 4 29 3 29 -4 0 -6 -9 -11 -19
-11 -25 0 -37 -17 -14 -22 15 -3 15 -4 -1 -20 -10 -10 -14 -19 -9 -20 4 -1 77
-2 162 -2 97 -1 156 -5 158 -11 2 -7 -34 -12 -99 -14 -189 -5 -208 -6 -208
-13 0 -12 -28 -9 -32 2 -5 15 -35 15 -95 1 -52 -13 -72 -31 -34 -31 32 0 50
-11 44 -26 -3 -8 0 -14 7 -14 6 0 8 -4 5 -10 -3 -5 -1 -10 6 -10 8 0 7 -5 -2
-17 -13 -15 -11 -16 16 -8 17 4 44 9 60 10 17 1 77 6 135 11 58 4 116 7 129 6
13 -2 28 3 33 10 6 10 10 10 19 -2 8 -11 12 -12 16 -2 5 14 49 16 57 3 3 -5
15 -7 26 -4 15 4 20 0 20 -15 0 -11 -8 -23 -17 -25 -10 -2 205 -5 476 -6 440
-1 513 1 660 19 226 27 609 60 627 53 8 -3 14 -1 14 3 0 5 12 9 28 10 15 1
145 7 289 14 192 10 268 10 285 2 21 -9 18 -11 -22 -11 -59 -2 -33 -21 28 -21
23 0 42 -4 42 -9 0 -13 64 -21 261 -31 98 -5 210 -14 250 -19 67 -9 795 -11
770 -3 -22 7 1 22 34 22 19 0 37 5 40 10 3 6 23 10 43 10 20 0 53 5 72 10 19
6 85 13 145 16 62 2 112 9 113 15 3 6 64 9 169 9 90 -1 167 1 170 4 4 3 16 6
27 7 21 0 21 1 1 8 -11 5 -23 7 -27 5 -4 -3 -9 0 -13 6 -4 6 10 10 37 10 58 0
34 15 -51 31 -36 7 -76 18 -88 26 -12 8 -28 11 -34 7 -8 -4 -9 -3 -5 4 9 15
66 16 66 1 0 -8 5 -8 15 1 11 9 41 10 112 6 55 -4 111 -3 128 3 17 5 24 10 18
10 -7 1 -13 6 -13 11 0 7 7 7 20 0 14 -7 51 -9 108 -5 91 7 120 15 61 16 -60
1 -124 10 -133 19 -6 6 26 9 78 9 49 0 91 2 94 5 3 3 -5 6 -17 6 -16 0 -21 5
-18 14 7 17 -13 26 -53 26 -21 0 -29 6 -34 25 -5 18 -13 25 -31 25 -28 0 -45
19 -18 21 10 1 -4 5 -32 9 -111 16 -245 49 -245 60 0 4 28 6 63 5 34 -1 71 1
82 6 16 6 17 8 3 8 -9 1 -21 8 -25 16 -6 10 -51 21 -148 35 -77 12 -157 23
-177 26 -21 4 -38 10 -38 14 0 16 -67 38 -132 45 -38 4 -68 11 -68 16 0 5 24
7 53 4 34 -3 45 -2 32 3 -11 5 -77 15 -148 22 -70 7 -130 17 -133 21 -3 5 -30
9 -60 9 -30 0 -54 4 -54 8 0 5 -21 14 -47 21 -27 6 -75 19 -108 27 -70 18
-102 18 -290 -1 -77 -8 -189 -17 -249 -20 l-108 -6 5 27 c3 15 -1 45 -9 66 -7
21 -9 38 -4 38 5 0 14 -19 21 -42 19 -70 21 -76 26 -55 3 9 -1 33 -7 53 -10
28 -10 38 0 44 9 6 9 13 1 28 -6 11 -11 29 -11 40 0 10 -9 27 -20 37 -12 11
-20 28 -19 39 3 43 0 46 -36 40 -31 -5 -35 -3 -35 16 0 22 -68 100 -87 100
-17 0 -16 -6 4 -40 l17 -29 -50 -50 c-65 -64 -97 -78 -124 -51 -11 11 -22 31
-26 45 -5 21 -10 24 -28 19 -11 -4 -29 -8 -39 -9 -22 -2 -48 -25 -27 -25 16 0
83 -50 76 -57 -13 -14 46 -44 88 -45 59 -1 85 -25 63 -60 -8 -12 -17 -45 -21
-72 -9 -73 -16 -77 -110 -74 -53 2 -81 7 -81 15 0 6 -3 15 -7 19 -20 19 -5 23
21 5 25 -18 30 -19 35 -5 9 22 9 22 -24 39 -26 13 -29 20 -29 58 1 45 -33 137
-51 137 -5 0 -10 6 -10 14 0 22 -19 29 -36 15 -13 -10 -12 -15 6 -34 21 -22
27 -45 11 -45 -5 0 -11 8 -13 18 -3 12 -6 14 -11 5 -5 -8 2 -22 17 -37 21 -19
27 -34 30 -85 2 -33 9 -67 16 -76 21 -25 1 -38 -49 -31 -78 10 -127 15 -103
10 30 -7 28 -24 -3 -24 -14 0 -25 5 -25 10 0 6 -9 10 -21 10 -11 0 -17 -5 -14
-10 4 -7 -10 -9 -39 -8 -35 2 -45 6 -41 17 5 12 -14 13 -117 7 -68 -4 -184 -9
-258 -10 -74 -2 -183 -6 -242 -11 l-108 -8 0 74 c0 41 -9 112 -21 159 -11 47
-21 110 -22 140 l-2 55 59 5 c39 3 62 10 69 21 16 26 1 49 -31 49 -52 0 -92
12 -92 27 0 32 -56 71 -119 84 -44 9 -61 17 -61 29 0 30 78 324 110 415 38
106 60 150 110 225 32 47 88 109 67 74 -10 -18 4 -79 14 -62 6 8 9 -3 10 -32
1 -25 3 -36 6 -25 10 41 26 41 20 0 l-6 -40 15 28 c18 34 29 31 16 -4 -5 -13
-12 -37 -16 -54 -7 -29 -7 -29 9 -10 16 20 16 20 9 -4 -4 -14 -2 -21 4 -17 13
8 22 -58 17 -124 -3 -41 -2 -48 4 -25 8 28 9 27 10 -16 1 -28 7 -52 16 -59 21
-17 25 -11 27 43 1 25 6 43 10 40 5 -2 6 19 4 49 -5 48 -4 51 8 29 l13 -24 -1
31 c0 16 -5 28 -10 24 -5 -3 -6 0 -2 6 4 6 2 22 -4 34 -8 17 -5 15 14 -7 33
-38 33 -23 1 34 -14 24 -23 46 -20 49 3 3 5 -1 5 -8 0 -7 3 -11 6 -8 3 3 -7
30 -22 60 l-26 53 28 -25 c30 -26 20 -8 -20 38 -20 23 -20 23 -1 16 20 -7 20
-7 1 15 -11 12 -20 31 -21 41 -2 19 -1 19 18 3 19 -17 20 -17 8 5 -6 12 -8 22
-3 22 5 0 17 -10 26 -22 12 -16 16 -18 12 -5 -8 25 3 21 14 -5 7 -20 9 -20 9
-4 1 16 5 15 27 -9 25 -27 26 -27 19 -6 -5 16 -4 21 4 17 6 -4 11 -13 11 -20
0 -8 7 -19 15 -26 12 -10 15 -9 15 4 0 27 17 9 24 -24 3 -17 10 -29 15 -25 6
3 8 -10 6 -32 l-5 -38 14 40 c14 39 14 39 16 10 1 -27 2 -28 11 -10 7 15 8 8
5 -25 l-4 -45 13 40 13 40 1 -45 c1 -34 4 -41 12 -30 7 11 9 3 5 -30 l-5 -45
13 45 14 45 2 -40 3 -40 6 40 c7 39 7 38 20 -35 17 -100 19 -104 20 -45 2 69
12 126 22 119 11 -6 -10 55 -29 84 -8 12 -12 25 -9 28 3 3 18 -13 33 -35 14
-23 28 -41 31 -41 7 0 -27 58 -53 89 -32 38 -24 40 22 4 18 -16 37 -28 41 -28
5 0 14 -4 21 -8 6 -5 12 -5 12 0 0 12 -73 88 -104 108 -36 24 -25 31 15 11 38
-19 42 -20 34 -6 -4 6 -25 20 -47 31 -28 14 -37 23 -28 29 8 5 -9 15 -46 28
-57 20 -58 20 -24 22 l35 2 -35 10 c-19 5 -51 8 -72 6 -21 -2 -39 0 -40 4 -2
4 -21 3 -43 -4 -22 -6 -50 -11 -62 -10 -12 1 -25 -3 -28 -8 -3 -6 -11 -10 -17
-10 -7 0 -6 6 2 15 7 8 9 15 5 15 -4 0 -2 7 5 15 7 8 18 15 24 15 6 0 2 -7 -8
-15 -11 -8 -15 -15 -9 -15 14 0 35 25 27 33 -3 3 6 13 20 23 41 26 22 29 -20
3 -21 -12 -34 -18 -31 -12 4 7 33 26 65 44 31 18 66 39 77 46 18 13 16 14 -20
9 l-40 -6 50 24 c28 14 43 25 35 26 -8 0 3 9 25 20 22 11 29 17 15 14 -14 -4
-32 -8 -40 -10 -8 -3 17 11 55 30 39 20 63 36 55 36 -13 1 27 21 150 78 24 11
23 12 -7 6 -56 -10 -36 4 35 25 37 11 76 27 87 36 15 11 5 10 -38 -5 -76 -25
-163 -38 -153 -21 4 6 13 11 20 11 7 0 21 7 32 15 17 12 13 12 -31 1 -27 -8
-59 -17 -69 -22 -14 -5 -17 -4 -12 5 9 13 -62 -13 -78 -30 -6 -5 -14 -9 -20
-9 -5 0 5 16 24 35 19 19 30 35 25 35 -5 0 -49 -41 -98 -91z m-584 -61 c-38
-43 -33 -46 19 -17 65 35 86 38 35 4 -55 -38 -45 -37 26 1 78 42 104 44 49 3
-53 -39 -53 -45 -2 -19 54 28 68 25 31 -6 -43 -36 -39 -49 5 -19 51 34 59 31
33 -12 -13 -20 -17 -33 -9 -28 10 6 12 4 7 -9 -6 -14 -2 -14 24 4 35 26 49 22
19 -5 -28 -26 -25 -41 5 -21 13 9 26 16 29 16 6 0 2 -23 -8 -39 -7 -11 -5 -13
9 -7 18 7 18 6 0 -14 l-20 -22 -22 26 c-12 14 -26 26 -31 26 -5 0 -15 7 -22
15 -7 8 -17 15 -23 15 -6 0 0 -12 14 -26 l24 -26 -40 21 c-45 24 -60 27 -49 9
5 -8 2 -9 -12 -4 -10 4 -35 10 -54 12 l-35 5 33 -15 c17 -8 32 -16 32 -18 0
-2 -26 -2 -57 0 -32 2 -69 -1 -83 -7 l-25 -10 27 0 c15 -1 39 -6 55 -13 l28
-11 -44 -8 c-25 -5 -49 -13 -55 -19 -8 -8 -3 -8 17 -1 43 17 67 11 27 -6 -19
-8 -44 -26 -55 -39 -25 -29 -116 -77 -128 -65 -4 4 0 14 9 22 15 12 17 12 9 0
-5 -9 -4 -12 3 -7 6 4 8 13 5 22 -5 13 -10 11 -31 -8 l-26 -23 22 31 c11 17
28 37 37 44 11 9 13 15 4 20 -14 9 2 43 39 83 14 15 20 27 13 27 -7 0 -9 5 -4
13 4 6 8 17 8 22 3 34 20 64 45 78 39 24 44 21 22 -10 -10 -16 -24 -39 -31
-53 l-12 -25 18 23 c16 23 100 92 111 92 3 0 -4 -10 -15 -22z m293 -197 c-4
-5 -1 -12 4 -14 6 -3 5 -4 -2 -3 -15 3 -23 26 -8 26 6 0 9 -4 6 -9z m-374
-186 c9 -1 15 2 12 7 -8 12 10 10 24 -4 9 -9 12 -9 12 1 0 11 3 11 17 0 11
-10 14 -10 9 -1 -5 9 4 12 33 12 23 0 41 -3 41 -6 0 -4 -13 -22 -30 -41 -16
-18 -30 -38 -30 -44 0 -6 -12 -26 -26 -44 -14 -19 -23 -38 -21 -43 3 -4 2 -14
-4 -22 -5 -8 -9 -10 -9 -4 0 6 -20 47 -44 92 -34 63 -40 82 -29 86 8 3 11 11
7 17 -5 8 -3 9 7 4 7 -5 21 -10 31 -10z m358 -37 c0 -11 -27 -53 -59 -94 -33
-40 -80 -114 -105 -163 -45 -91 -117 -297 -160 -459 l-23 -87 -46 -3 c-46 -3
-46 -3 -56 35 -46 175 -70 350 -78 569 -5 145 -4 161 11 161 9 0 16 -7 17 -16
0 -10 2 -12 6 -3 10 26 23 10 23 -30 l1 -43 14 30 14 30 -4 -40 -5 -40 15 35
15 35 -4 -55 c-3 -39 -2 -48 4 -32 14 34 23 26 16 -15 -3 -21 -3 -32 0 -25 9
20 24 3 24 -29 0 -18 4 -28 10 -24 6 4 10 -6 11 -22 0 -25 1 -26 9 -8 7 17 9
15 9 -12 1 -46 21 -41 21 5 1 47 15 111 29 125 7 7 8 2 5 -14 -5 -22 -4 -22
11 4 8 15 20 27 25 27 6 0 10 7 10 16 0 8 5 25 11 36 11 21 12 21 25 -3 l13
-24 1 30 c0 17 5 37 10 45 8 12 10 8 11 -15 1 -24 4 -19 14 23 17 68 25 76 26
26 l1 -39 13 40 13 40 2 -35 2 -35 9 33 c11 36 16 38 47 16 22 -15 23 -15 16
10 -5 21 -3 25 10 20 9 -3 16 -15 16 -26z m574 -85 c8 -20 3 -16 -35 24 l-34
37 32 -25 c17 -13 34 -30 37 -36z m826 -1183 c0 -10 6 -25 13 -32 22 -22 37
-55 37 -82 0 -22 -5 -26 -45 -32 -52 -7 -75 -1 -75 21 0 8 -9 41 -20 72 -11
31 -18 58 -16 60 6 6 91 20 99 16 4 -2 7 -13 7 -23z m-111 -52 c10 -24 21 -55
25 -70 6 -27 5 -28 -39 -28 -45 0 -45 0 -45 35 0 35 23 105 35 105 3 0 14 -19
24 -42z m-679 -98 c0 -13 -11 -13 -30 0 -12 8 -11 10 8 10 12 0 22 -4 22 -10z
m395 -620 c3 -5 -3 -10 -14 -10 -12 0 -21 5 -21 10 0 6 6 10 14 10 8 0 18 -4
21 -10z m67 -2 c-9 -9 -15 -9 -24 0 -9 9 -7 12 12 12 19 0 21 -3 12 -12z m68
2 c0 -5 -4 -10 -10 -10 -5 0 -10 5 -10 10 0 6 5 10 10 10 6 0 10 -4 10 -10z
m110 0 c-20 -13 -70 -13 -70 0 0 6 19 10 43 10 31 0 38 -3 27 -10z m-1990 -14
c0 -3 -4 -8 -10 -11 -5 -3 -10 -1 -10 4 0 6 5 11 10 11 6 0 10 -2 10 -4z
m-343 -23 c3 -7 -9 -10 -29 -8 -45 5 -47 6 -18 15 30 9 42 8 47 -7z m33 7 c0
-5 -4 -10 -10 -10 -5 0 -10 5 -10 10 0 6 5 10 10 10 6 0 10 -4 10 -10z m-320
-30 c0 -5 -7 -10 -16 -10 -8 0 -12 5 -9 10 3 6 10 10 16 10 5 0 9 -4 9 -10z"/>
<path d="M3531 2416 c-9 -11 -8 -15 6 -20 10 -4 14 -4 10 0 -4 4 -2 13 4 21 7
8 8 13 1 13 -5 0 -15 -6 -21 -14z"/>
<path d="M2645 2049 c-4 -6 -5 -12 -2 -15 2 -3 7 2 10 11 7 17 1 20 -8 4z"/>
<path d="M5610 2013 c-19 -6 -44 -12 -56 -12 -11 -1 -45 -19 -74 -41 -47 -35
-59 -39 -89 -34 -28 6 -33 4 -29 -8 4 -8 3 -19 0 -25 -8 -13 -107 -63 -123
-63 -7 0 -36 -12 -66 -26 -48 -24 -58 -34 -54 -56 0 -4 -7 -5 -17 -2 -15 5
-15 4 1 -6 14 -9 22 -9 35 2 13 9 12 7 -2 -10 -20 -23 -9 -31 13 -9 10 10 11
9 6 -4 -5 -14 1 -15 57 -7 73 11 169 55 176 81 5 20 26 18 28 -4 1 -8 2 -20 3
-27 1 -17 81 -8 93 10 13 22 9 57 -9 67 -15 8 -12 12 20 27 20 10 37 21 37 26
0 4 4 8 10 8 21 0 99 64 91 74 -5 6 -11 20 -13 31 -3 19 -6 19 -38 8z"/>
<path d="M5915 1849 c-16 -10 -43 -26 -60 -35 -16 -9 -38 -27 -48 -40 -13 -17
-29 -24 -53 -24 -22 0 -34 -5 -34 -14 0 -7 -7 -19 -15 -26 -26 -22 -16 -31 15
-15 36 19 40 5 9 -33 -35 -44 -2 -37 56 12 29 25 67 49 84 52 34 7 39 18 15
32 -12 7 -7 16 32 54 49 48 49 68 -1 37z"/>
<path d="M4731 884 c0 -11 3 -14 6 -6 3 7 2 16 -1 19 -3 4 -6 -2 -5 -13z"/>
<path d="M4290 730 c19 -13 30 -13 30 0 0 6 -10 10 -22 10 -19 0 -20 -2 -8
-10z"/>
<path d="M2063 523 c9 -2 25 -2 35 0 9 3 1 5 -18 5 -19 0 -27 -2 -17 -5z"/>
<path d="M1988 513 c7 -3 16 -2 19 1 4 3 -2 6 -13 5 -11 0 -14 -3 -6 -6z"/>
<path d="M1568 193 c12 -2 30 -2 40 0 9 3 -1 5 -23 4 -22 0 -30 -2 -17 -4z"/>
<path d="M1583 23 c9 -2 23 -2 30 0 6 3 -1 5 -18 5 -16 0 -22 -2 -12 -5z"/>
</g>
</svg>
